<?xml version="1.0" encoding="utf-8"?>
<!-- Generator: Adobe Illustrator 28.0.0, SVG Export Plug-In . SVG Version: 6.00 Build 0)  -->
<svg version="1.1" id="图层_1" xmlns="http://www.w3.org/2000/svg" xmlns:xlink="http://www.w3.org/1999/xlink" x="0px" y="0px"
	 width="30px" height="30px" viewBox="0 0 30 30" style="enable-background:new 0 0 30 30;" xml:space="preserve">
<style type="text/css">
	.st0{fill:#8FE750;}
</style>
<path class="st0" d="M15,2.6c1.7,0,3.3,0.3,4.8,1c1.5,0.6,2.8,1.5,3.9,2.6s2,2.4,2.6,3.9s1,3.1,1,4.8c0,1.7-0.3,3.3-1,4.8
	s-1.5,2.8-2.6,3.9c-1.1,1.1-2.4,2-3.9,2.6c-1.5,0.6-3.1,1-4.8,1c-1.7,0-3.3-0.3-4.8-1s-2.8-1.5-3.9-2.6c-1.1-1.1-2-2.4-2.6-3.9
	s-1-3.1-1-4.8c0-1.7,0.3-3.3,1-4.8s1.5-2.8,2.6-3.9s2.4-2,3.9-2.6S13.3,2.6,15,2.6z M22.1,16.7c0.5,0,0.9-0.2,1.2-0.5
	c0.3-0.3,0.5-0.8,0.5-1.2c0-0.5-0.2-0.9-0.5-1.2s-0.7-0.5-1.2-0.5h-5.3V7.9c0-0.5-0.2-0.9-0.5-1.2c-0.3-0.3-0.8-0.5-1.2-0.5
	c-0.5,0-0.9,0.2-1.2,0.5s-0.5,0.8-0.5,1.2v5.3H8c-0.5,0-0.9,0.2-1.2,0.5c-0.3,0.3-0.5,0.7-0.5,1.2c0,0.5,0.2,0.9,0.5,1.2
	c0.3,0.3,0.7,0.5,1.2,0.5h5.3V22c0,0.5,0.2,0.9,0.5,1.2c0.3,0.3,0.7,0.5,1.2,0.5c0.5,0,0.9-0.2,1.2-0.5c0.3-0.3,0.5-0.8,0.5-1.2
	v-5.2C16.8,16.7,22.1,16.7,22.1,16.7z"/>
</svg>
