<?xml version="1.0" encoding="utf-8"?>
<!-- Generator: Adobe Illustrator 28.0.0, SVG Export Plug-In . SVG Version: 6.00 Build 0)  -->
<svg version="1.1" id="图层_1" xmlns="http://www.w3.org/2000/svg" xmlns:xlink="http://www.w3.org/1999/xlink" x="0px" y="0px"
	 width="30px" height="30px" viewBox="0 0 30 30" style="enable-background:new 0 0 30 30;" xml:space="preserve">
<style type="text/css">
	.st0{fill:#F7371E;}
</style>
<path class="st0" d="M14.9,2.6c1.7,0,3.3,0.3,4.8,1s2.8,1.5,3.9,2.7s2,2.4,2.7,3.9s1,3.1,1,4.8c0,1.7-0.3,3.3-1,4.8
	c-0.7,1.5-1.5,2.8-2.7,3.9c-1.1,1.1-2.4,2-3.9,2.7c-1.5,0.7-3.1,1-4.8,1c-1.7,0-3.3-0.3-4.8-1c-1.5-0.7-2.8-1.5-3.9-2.7
	c-1.1-1.1-2-2.4-2.7-3.9s-1-3.1-1-4.8c0-1.7,0.3-3.3,1-4.8S5,7.3,6.1,6.2s2.4-2,3.9-2.7S13.2,2.6,14.9,2.6z M21,16.7
	c0.6,0,1.1-0.1,1.5-0.4c0.4-0.3,0.7-0.7,0.7-1.3c0-0.6-0.2-1-0.7-1.2c-0.4-0.3-0.9-0.4-1.5-0.4H8.8c-0.6,0-1.1,0.1-1.5,0.4
	c-0.5,0.3-0.7,0.7-0.7,1.2c0,0.6,0.2,1,0.7,1.3c0.5,0.3,1,0.4,1.5,0.4H21z"/>
</svg>
