<?xml version="1.0" encoding="utf-8"?>
<!-- Generator: Adobe Illustrator 28.0.0, SVG Export Plug-In . SVG Version: 6.00 Build 0)  -->
<svg version="1.1" id="图层_1" xmlns="http://www.w3.org/2000/svg" xmlns:xlink="http://www.w3.org/1999/xlink" x="0px" y="0px"
	 width="30px" height="30px" viewBox="0 0 30 30" style="enable-background:new 0 0 30 30;" xml:space="preserve">
<style type="text/css">
	.st0{fill:#1296DB;}
	.st1{fill:#12789B;}
</style>
<path class="st0" d="M9.2,25.9"/>
<path class="st0" d="M26.6,25.9"/>
<path class="st0" d="M6.4,26.4"/>
<path class="st0" d="M29,26.4"/>
<path class="st0" d="M1,23.6"/>
<path class="st0" d="M29,23.6"/>
<path class="st0" d="M1,25.8"/>
<path class="st0" d="M29,25.8"/>
<path class="st1" d="M25.3,11.4l-9.3-9.2c-0.6-0.6-1.5-0.6-2.1,0l-9.2,9.3c-0.8,0.8-0.1,2.3,1,2.3h4.6v13.1c0,0.8,0.7,1.5,1.5,1.5
	h6.6c0.8,0,1.5-0.7,1.5-1.5l0-13.1h4.6C25.5,13.7,26.1,12.2,25.3,11.4z"/>
</svg>
